<?xml version="1.0" encoding="utf-8" ?>
<svg baseProfile="full" height="700px" version="1.1" width="1500px" xmlns="http://www.w3.org/2000/svg" xmlns:ev="http://www.w3.org/2001/xml-events" xmlns:xlink="http://www.w3.org/1999/xlink"><defs /><line stroke="rgb(10%,10%,16%)" x1="1030.0" x2="610.0" y1="350.0" y2="592.48711306" /><line stroke="rgb(10%,10%,16%)" x1="890.0" x2="470.0" y1="592.48711306" y2="350.0" /><line stroke="rgb(10%,10%,16%)" x1="610.0" x2="610.0" y1="592.48711306" y2="107.51288694" /><line stroke="rgb(10%,10%,16%)" x1="470.0" x2="890.0" y1="350.0" y2="107.51288694" /><line stroke="rgb(10%,10%,16%)" x1="610.0" x2="1030.0" y1="107.51288694" y2="350.0" /><line stroke="rgb(10%,10%,16%)" x1="890.0" x2="890.0" y1="107.51288694" y2="592.48711306" /><line stroke="rgb(10%,10%,16%)" x1="890.0" x2="610.0" y1="430.829037687" y2="430.829037687" /><line stroke="rgb(10%,10%,16%)" x1="750.0" x2="610.0" y1="511.658075373" y2="269.170962313" /><line stroke="rgb(10%,10%,16%)" x1="610.0" x2="750.0" y1="430.829037687" y2="188.341924627" /><line stroke="rgb(10%,10%,16%)" x1="610.0" x2="890.0" y1="269.170962313" y2="269.170962313" /><line stroke="rgb(10%,10%,16%)" x1="750.0" x2="890.0" y1="188.341924627" y2="430.829037687" /><line stroke="rgb(10%,10%,16%)" x1="890.0" x2="750.0" y1="269.170962313" y2="511.658075373" /><line stroke="rgb(10%,10%,16%)" x1="796.666666667" x2="656.666666667" y1="430.829037687" y2="350.0" /><line stroke="rgb(10%,10%,16%)" x1="703.333333333" x2="703.333333333" y1="430.829037687" y2="269.170962313" /><line stroke="rgb(10%,10%,16%)" x1="656.666666667" x2="796.666666667" y1="350.0" y2="269.170962313" /><line stroke="rgb(10%,10%,16%)" x1="703.333333333" x2="843.333333333" y1="269.170962313" y2="350.0" /><line stroke="rgb(10%,10%,16%)" x1="796.666666667" x2="796.666666667" y1="269.170962313" y2="430.829037687" /><line stroke="rgb(10%,10%,16%)" x1="843.333333333" x2="703.333333333" y1="350.0" y2="430.829037687" /><line stroke="rgb(10%,10%,16%)" x1="750.0" x2="703.333333333" y1="403.886025124" y2="323.056987438" /><line stroke="rgb(10%,10%,16%)" x1="703.333333333" x2="750.0" y1="376.943012562" y2="296.113974876" /><line stroke="rgb(10%,10%,16%)" x1="703.333333333" x2="796.666666667" y1="323.056987438" y2="323.056987438" /><line stroke="rgb(10%,10%,16%)" x1="750.0" x2="796.666666667" y1="296.113974876" y2="376.943012562" /><line stroke="rgb(10%,10%,16%)" x1="796.666666667" x2="750.0" y1="323.056987438" y2="403.886025124" /><line stroke="rgb(10%,10%,16%)" x1="796.666666667" x2="703.333333333" y1="376.943012562" y2="376.943012562" /><line stroke="rgb(10%,10%,16%)" x1="734.444444444" x2="734.444444444" y1="376.943012562" y2="323.056987438" /><line stroke="rgb(10%,10%,16%)" x1="718.888888889" x2="765.555555556" y1="350.0" y2="323.056987438" /><line stroke="rgb(10%,10%,16%)" x1="734.444444444" x2="781.111111111" y1="323.056987438" y2="350.0" /><line stroke="rgb(10%,10%,16%)" x1="765.555555556" x2="765.555555556" y1="323.056987438" y2="376.943012562" /><line stroke="rgb(10%,10%,16%)" x1="781.111111111" x2="734.444444444" y1="350.0" y2="376.943012562" /><line stroke="rgb(10%,10%,16%)" x1="765.555555556" x2="718.888888889" y1="376.943012562" y2="350.0" /><line stroke="rgb(10%,10%,16%)" x1="734.444444444" x2="750.0" y1="358.981004187" y2="332.037991625" /><line stroke="rgb(10%,10%,16%)" x1="734.444444444" x2="765.555555556" y1="341.018995813" y2="341.018995813" /><line stroke="rgb(10%,10%,16%)" x1="750.0" x2="765.555555556" y1="332.037991625" y2="358.981004187" /><line stroke="rgb(10%,10%,16%)" x1="765.555555556" x2="750.0" y1="341.018995813" y2="367.962008375" /><line stroke="rgb(10%,10%,16%)" x1="765.555555556" x2="734.444444444" y1="358.981004187" y2="358.981004187" /><line stroke="rgb(10%,10%,16%)" x1="750.0" x2="734.444444444" y1="367.962008375" y2="341.018995813" /><line stroke="rgb(10%,10%,16%)" x1="739.62962963" x2="755.185185185" y1="350.0" y2="341.018995813" /><line stroke="rgb(10%,10%,16%)" x1="744.814814815" x2="760.37037037" y1="341.018995813" y2="350.0" /><line stroke="rgb(10%,10%,16%)" x1="755.185185185" x2="755.185185185" y1="341.018995813" y2="358.981004187" /><line stroke="rgb(10%,10%,16%)" x1="760.37037037" x2="744.814814815" y1="350.0" y2="358.981004187" /><line stroke="rgb(10%,10%,16%)" x1="755.185185185" x2="739.62962963" y1="358.981004187" y2="350.0" /><line stroke="rgb(10%,10%,16%)" x1="744.814814815" x2="744.814814815" y1="358.981004187" y2="341.018995813" /><line stroke="rgb(10%,10%,16%)" x1="744.814814815" x2="755.185185185" y1="347.006331938" y2="347.006331938" /><line stroke="rgb(10%,10%,16%)" x1="750.0" x2="755.185185185" y1="344.012663875" y2="352.993668062" /><line stroke="rgb(10%,10%,16%)" x1="755.185185185" x2="750.0" y1="347.006331938" y2="355.987336125" /><line stroke="rgb(10%,10%,16%)" x1="755.185185185" x2="744.814814815" y1="352.993668062" y2="352.993668062" /><line stroke="rgb(10%,10%,16%)" x1="750.0" x2="744.814814815" y1="355.987336125" y2="347.006331938" /><line stroke="rgb(10%,10%,16%)" x1="744.814814815" x2="750.0" y1="352.993668062" y2="344.012663875" /><line stroke="rgb(10%,10%,16%)" x1="748.271604938" x2="753.456790123" y1="347.006331938" y2="350.0" /><line stroke="rgb(10%,10%,16%)" x1="751.728395062" x2="751.728395062" y1="347.006331938" y2="352.993668062" /><line stroke="rgb(10%,10%,16%)" x1="753.456790123" x2="748.271604938" y1="350.0" y2="352.993668062" /><line stroke="rgb(10%,10%,16%)" x1="751.728395062" x2="746.543209877" y1="352.993668062" y2="350.0" /><line stroke="rgb(10%,10%,16%)" x1="748.271604938" x2="748.271604938" y1="352.993668062" y2="347.006331938" /><line stroke="rgb(10%,10%,16%)" x1="746.543209877" x2="751.728395062" y1="350.0" y2="347.006331938" /><line stroke="rgb(10%,10%,16%)" x1="750.0" x2="751.728395062" y1="348.004221292" y2="350.997889354" /><line stroke="rgb(10%,10%,16%)" x1="751.728395062" x2="750.0" y1="349.002110646" y2="351.995778708" /><line stroke="rgb(10%,10%,16%)" x1="751.728395062" x2="748.271604938" y1="350.997889354" y2="350.997889354" /><line stroke="rgb(10%,10%,16%)" x1="750.0" x2="748.271604938" y1="351.995778708" y2="349.002110646" /><line stroke="rgb(10%,10%,16%)" x1="748.271604938" x2="750.0" y1="350.997889354" y2="348.004221292" /><line stroke="rgb(10%,10%,16%)" x1="748.271604938" x2="751.728395062" y1="349.002110646" y2="349.002110646" /></svg>