<?xml version="1.0" encoding="utf-8" ?>
<svg baseProfile="full" height="700px" version="1.1" width="1500px" xmlns="http://www.w3.org/2000/svg" xmlns:ev="http://www.w3.org/2001/xml-events" xmlns:xlink="http://www.w3.org/1999/xlink"><defs /><circle cx="750" cy="350" fill="white" r="280.0" stroke="black" stroke-width="1" /><line stroke="rgb(10%,10%,16%)" x1="1030.0" x2="798.621489747" y1="350.0" y2="625.746170843" /><line stroke="rgb(10%,10%,16%)" x1="964.492444073" x2="610.0" y1="529.980530712" y2="592.48711306" /><line stroke="rgb(10%,10%,16%)" x1="798.621489747" x2="486.88606618" y1="625.746170843" y2="445.765640131" /><line stroke="rgb(10%,10%,16%)" x1="610.0" x2="486.88606618" y1="592.48711306" y2="254.234359869" /><line stroke="rgb(10%,10%,16%)" x1="486.88606618" x2="610.0" y1="445.765640131" y2="107.51288694" /><line stroke="rgb(10%,10%,16%)" x1="486.88606618" x2="798.621489747" y1="254.234359869" y2="74.2538291566" /><line stroke="rgb(10%,10%,16%)" x1="610.0" x2="964.492444073" y1="107.51288694" y2="170.019469288" /><line stroke="rgb(10%,10%,16%)" x1="798.621489747" x2="1030.0" y1="74.2538291566" y2="350.0" /><line stroke="rgb(10%,10%,16%)" x1="964.492444073" x2="964.492444073" y1="170.019469288" y2="529.980530712" /><circle cx="750" cy="350" fill="white" r="161.658075373" stroke="black" stroke-width="1" /><line stroke="rgb(10%,10%,16%)" x1="901.908900519" x2="721.928369806" y1="405.290318109" y2="509.202125964" /><line stroke="rgb(10%,10%,16%)" x1="830.829037687" x2="626.162729675" y1="490.0" y2="453.911807856" /><line stroke="rgb(10%,10%,16%)" x1="721.928369806" x2="588.341924627" y1="509.202125964" y2="350.0" /><line stroke="rgb(10%,10%,16%)" x1="626.162729675" x2="626.162729675" y1="453.911807856" y2="246.088192144" /><line stroke="rgb(10%,10%,16%)" x1="588.341924627" x2="721.928369806" y1="350.0" y2="190.797874036" /><line stroke="rgb(10%,10%,16%)" x1="626.162729675" x2="830.829037687" y1="246.088192144" y2="210.0" /><line stroke="rgb(10%,10%,16%)" x1="721.928369806" x2="901.908900519" y1="190.797874036" y2="294.709681891" /><line stroke="rgb(10%,10%,16%)" x1="830.829037687" x2="901.908900519" y1="210.0" y2="405.290318109" /><line stroke="rgb(10%,10%,16%)" x1="901.908900519" x2="830.829037687" y1="294.709681891" y2="490.0" /><circle cx="750" cy="350" fill="white" r="93.3333333333" stroke="black" stroke-width="1" /><line stroke="rgb(10%,10%,16%)" x1="821.497481358" x2="703.333333333" y1="409.993510237" y2="430.829037687" /><line stroke="rgb(10%,10%,16%)" x1="766.207163249" x2="662.295355393" y1="441.915390281" y2="381.921880044" /><line stroke="rgb(10%,10%,16%)" x1="703.333333333" x2="662.295355393" y1="430.829037687" y2="318.078119956" /><line stroke="rgb(10%,10%,16%)" x1="662.295355393" x2="703.333333333" y1="381.921880044" y2="269.170962313" /><line stroke="rgb(10%,10%,16%)" x1="662.295355393" x2="766.207163249" y1="318.078119956" y2="258.084609719" /><line stroke="rgb(10%,10%,16%)" x1="703.333333333" x2="821.497481358" y1="269.170962313" y2="290.006489763" /><line stroke="rgb(10%,10%,16%)" x1="766.207163249" x2="843.333333333" y1="258.084609719" y2="350.0" /><line stroke="rgb(10%,10%,16%)" x1="821.497481358" x2="821.497481358" y1="290.006489763" y2="409.993510237" /><line stroke="rgb(10%,10%,16%)" x1="843.333333333" x2="766.207163249" y1="350.0" y2="441.915390281" /><circle cx="750" cy="350" fill="white" r="53.8860251244" stroke="black" stroke-width="1" /><line stroke="rgb(10%,10%,16%)" x1="776.943012562" x2="708.720909892" y1="396.666666667" y2="384.637269285" /><line stroke="rgb(10%,10%,16%)" x1="740.642789935" x2="696.113974876" y1="403.067375321" y2="350.0" /><line stroke="rgb(10%,10%,16%)" x1="708.720909892" x2="708.720909892" y1="384.637269285" y2="315.362730715" /><line stroke="rgb(10%,10%,16%)" x1="696.113974876" x2="740.642789935" y1="350.0" y2="296.932624679" /><line stroke="rgb(10%,10%,16%)" x1="708.720909892" x2="776.943012562" y1="315.362730715" y2="303.333333333" /><line stroke="rgb(10%,10%,16%)" x1="740.642789935" x2="800.636300173" y1="296.932624679" y2="331.569893964" /><line stroke="rgb(10%,10%,16%)" x1="776.943012562" x2="800.636300173" y1="303.333333333" y2="368.430106036" /><line stroke="rgb(10%,10%,16%)" x1="800.636300173" x2="776.943012562" y1="331.569893964" y2="396.666666667" /><line stroke="rgb(10%,10%,16%)" x1="800.636300173" x2="740.642789935" y1="368.430106036" y2="403.067375321" /><circle cx="750" cy="350" fill="white" r="31.1111111111" stroke="black" stroke-width="1" /><line stroke="rgb(10%,10%,16%)" x1="755.40238775" x2="720.765118464" y1="380.638463427" y2="360.640626681" /><line stroke="rgb(10%,10%,16%)" x1="734.444444444" x2="720.765118464" y1="376.943012562" y2="339.359373319" /><line stroke="rgb(10%,10%,16%)" x1="720.765118464" x2="734.444444444" y1="360.640626681" y2="323.056987438" /><line stroke="rgb(10%,10%,16%)" x1="720.765118464" x2="755.40238775" y1="339.359373319" y2="319.361536573" /><line stroke="rgb(10%,10%,16%)" x1="734.444444444" x2="773.832493786" y1="323.056987438" y2="330.002163254" /><line stroke="rgb(10%,10%,16%)" x1="755.40238775" x2="781.111111111" y1="319.361536573" y2="350.0" /><line stroke="rgb(10%,10%,16%)" x1="773.832493786" x2="773.832493786" y1="330.002163254" y2="369.997836746" /><line stroke="rgb(10%,10%,16%)" x1="781.111111111" x2="755.40238775" y1="350.0" y2="380.638463427" /><line stroke="rgb(10%,10%,16%)" x1="773.832493786" x2="734.444444444" y1="369.997836746" y2="376.943012562" /></svg>