<?xml version="1.0" encoding="utf-8" ?>
<svg baseProfile="full" height="700px" version="1.1" width="1500px" xmlns="http://www.w3.org/2000/svg" xmlns:ev="http://www.w3.org/2001/xml-events" xmlns:xlink="http://www.w3.org/1999/xlink"><defs /><line stroke="rgb(10%,10%,16%)" x1="100" x2="400" y1="600" y2="100" /><line stroke="rgb(10%,10%,16%)" x1="100" x2="1000" y1="600" y2="600" /><line stroke="rgb(10%,10%,16%)" x1="400" x2="1000" y1="100" y2="600" /><line stroke="rgb(10%,10%,16%)" x1="1000" x2="100" y1="600" y2="600" /><line stroke="rgb(10%,10%,16%)" x1="1000" x2="931.737494494" y1="600" y2="600.0" /><line stroke="rgb(10%,10%,16%)" x1="100" x2="931.737494494" y1="600" y2="600.0" /><line stroke="rgb(10%,10%,16%)" x1="400" x2="100" y1="100" y2="600" /><line stroke="rgb(10%,10%,16%)" x1="400" x2="931.737494494" y1="100" y2="600.0" /><line stroke="rgb(10%,10%,16%)" x1="100" x2="931.737494494" y1="600" y2="600.0" /><line stroke="rgb(10%,10%,16%)" x1="931.737494494" x2="1000" y1="600.0" y2="600" /><line stroke="rgb(10%,10%,16%)" x1="931.737494494" x2="359.538368102" y1="600.0" y2="600.0" /><line stroke="rgb(10%,10%,16%)" x1="1000" x2="359.538368102" y1="600" y2="600.0" /><line stroke="rgb(10%,10%,16%)" x1="100" x2="1000" y1="600" y2="600" /><line stroke="rgb(10%,10%,16%)" x1="100" x2="359.538368102" y1="600" y2="600.0" /><line stroke="rgb(10%,10%,16%)" x1="1000" x2="359.538368102" y1="600" y2="600.0" /><line stroke="rgb(10%,10%,16%)" x1="100" x2="931.737494494" y1="600" y2="600.0" /><line stroke="rgb(10%,10%,16%)" x1="100" x2="239.826860978" y1="600" y2="320.346278044" /><line stroke="rgb(10%,10%,16%)" x1="931.737494494" x2="239.826860978" y1="600.0" y2="320.346278044" /><line stroke="rgb(10%,10%,16%)" x1="400" x2="931.737494494" y1="100" y2="600.0" /><line stroke="rgb(10%,10%,16%)" x1="400" x2="239.826860978" y1="100" y2="320.346278044" /><line stroke="rgb(10%,10%,16%)" x1="931.737494494" x2="239.826860978" y1="600.0" y2="320.346278044" /></svg>